#!OML:ASF X:\für Bonn\!DataBase\2005_08_11_Bastian_Final\c3d\Bastian.ASF
:FULLY-SPECIFIED
:DEGREES
160
root -22.332 17.6423 -0.20066 48.7861 -83.065 -58.2188
lowerback 6.13455 4.63922 6.96449
upperback 5.82973 6.33002 -4.04044
thorax 3.93786 3.49397 -8.28159
lowerneck -7.80356 -8.93097 1.92529
upperneck 11.7227 -13.9503 10.0323
head 5.43659 -6.22216 1.7711
rclavicle -2.76311e-014 2.06736e-014
rhumerus 56.7433 -4.44855 -30.6372
rradius 27.5372
rwrist -16.1982
rhand -16.5977 -12.45
rfingers 7.12502
rthumb 9.62356 -42.2102
lclavicle -2.76311e-014 2.06736e-014
lhumerus -20.8897 -12.349 83.2316
lradius 13.7271
lwrist 13.3835
lhand -10.355 -6.44706
lfingers 7.12502
lthumb 15.6418 22.9406
rfemur 0.725943 2.04173 25.0155
rtibia 27.9493
rfoot -10.3062 -16.3149
rtoes -7.99757
lfemur 2.68958 2.57252 -14.0862
ltibia 22.2397
lfoot -8.76619 -5.1303
ltoes -18.796
161
root -22.3337 17.6414 -0.189203 49.8393 -83.1519 -59.2904
lowerback 5.99214 4.58735 6.88873
upperback 5.83307 6.25095 -3.9792
thorax 3.9868 3.45131 -8.16033
lowerneck -7.53746 -8.90263 2.05414
upperneck 12.1981 -13.9783 9.97465
head 5.5289 -6.22251 1.73522
rclavicle 5.38706e-014 -5.08889e-014
rhumerus 56.6674 -4.70586 -31.5563
rradius 28.3495
rwrist -15.9196
rhand -17.4777 -11.8812
rfingers 7.12502
rthumb 8.77435 -41.6788
lclavicle 5.38706e-014 -5.08889e-014
lhumerus -20.9551 -12.2625 83.2655
lradius 13.8509
lwrist 13.4729
lhand -10.371 -6.55261
lfingers 7.12502
lthumb 15.6263 22.8363
rfemur 0.731386 2.09565 24.9738
rtibia 27.9566
rfoot -10.2755 -16.2156
rtoes -8.15746
lfemur 2.74571 2.6039 -14.1292
ltibia 22.2448
lfoot -8.81253 -5.0106
ltoes -18.7918
162
root -22.3343 17.64 -0.178148 50.9387 -83.2335 -60.4106
lowerback 5.85487 4.52716 6.78348
upperback 5.84506 6.15931 -3.89377
thorax 4.03322 3.4003 -7.99692
lowerneck -7.27857 -8.88086 2.15987
upperneck 12.6485 -14.0036 9.88652
head 5.61373 -6.22505 1.69417
rclavicle 8.22969e-014 4.77083e-015
rhumerus 56.5922 -4.93913 -32.4483
rradius 29.246
rwrist -15.5667
rhand -18.1743 -11.1897
rfingers 7.12502
rthumb 8.1021 -41.0143
lclavicle 8.22969e-014 4.77083e-015
lhumerus -21.0606 -12.1591 83.3284
lradius 14.0239
lwrist 13.5568
lhand -10.42 -6.66253
lfingers 7.12502
lthumb 15.5792 22.73
rfemur 0.735039 2.1587 24.9406
rtibia 27.9628
rfoot -10.2449 -16.1118
rtoes -8.29752
lfemur 2.79108 2.68851 -14.1536
ltibia 22.2545
lfoot -8.85094 -4.9591
ltoes -18.6721
163
root -22.336 17.6384 -0.166908 52.0763 -83.3133 -61.5695
lowerback 5.70751 4.47386 6.67819
upperback 5.85694 6.0767 -3.80697
thorax 4.08746 3.3541 -7.83148
lowerneck -7.0021 -8.8787 2.22656
upperneck 13.0689 -14.056 9.85159
head 5.69405 -6.24173 1.67419
rclavicle 4.29375e-014 -4.45278e-014
rhumerus 56.4493 -5.15067 -33.2243
rradius 30.2849
rwrist -15.3131
rhand -18.6591 -10.4887
rfingers 7.12502
rthumb 7.6342 -40.3309
lclavicle 4.29375e-014 -4.45278e-014
lhumerus -21.1799 -12.0333 83.3954
lradius 14.1842
lwrist 13.5767
lhand -10.4326 -6.77297
lfingers 7.12502
lthumb 15.567 22.6205
rfemur 0.752362 2.24295 24.9082
rtibia 27.9633
rfoot -10.2363 -16.0267
rtoes -8.27204
lfemur 2.83828 2.7525 -14.1882
ltibia 22.271
lfoot -8.89778 -4.85366
ltoes -18.7064
164
root -22.3366 17.6367 -0.155367 53.176 -83.382 -62.6974
lowerback 5.5946 4.40128 6.58086
upperback 5.85493 5.9708 -3.72398
thorax 4.1053 3.29492 -7.67906
lowerneck -6.63761 -8.87325 2.27071
upperneck 13.4006 -14.0932 9.86291
head 5.73586 -6.25765 1.67921
rclavicle -1.39149e-014 -2.38542e-014
rhumerus 56.2744 -5.33782 -34.0038
rradius 31.4567
rwrist -14.9594
rhand -18.8369 -9.81483
rfingers 7.12502
rthumb 7.46261 -39.6632
lclavicle -1.39149e-014 -2.38542e-014
lhumerus -21.3295 -11.9127 83.4622
lradius 14.3345
lwrist 13.6336
lhand -10.4453 -6.81367
lfingers 7.12502
lthumb 15.5548 22.5808
rfemur 0.766999 2.29618 24.8767
rtibia 27.9652
rfoot -10.2016 -15.9363
rtoes -8.4198
lfemur 2.88694 2.80571 -14.2117
ltibia 22.2898
lfoot -8.94015 -4.77958
ltoes -18.4669
165
root -22.3379 17.6359 -0.143315 54.3808 -83.4541 -63.9221
lowerback 5.44502 4.33347 6.47457
upperback 5.88048 5.86833 -3.63576
thorax 4.17287 3.23931 -7.51202
lowerneck -6.29836 -8.90001 2.27511
upperneck 13.6722 -14.1677 9.90343
head 5.76947 -6.29381 1.69608
rclavicle -3.95581e-014 -2.70347e-014
rhumerus 56.0625 -5.55779 -34.6895
rradius 32.7529
rwrist -14.5071
rhand -18.7889 -9.18507
rfingers 7.12502
rthumb 7.50889 -39.0318
lclavicle -3.95581e-014 -2.70347e-014
lhumerus -21.4362 -11.7193 83.5145
lradius 14.479
lwrist 13.6252
lhand -10.4075 -6.87784
lfingers 7.12502
lthumb 15.5912 22.5138
rfemur 0.773262 2.35169 24.8411
rtibia 27.9656
rfoot -10.1726 -15.8198
rtoes -8.56694
lfemur 2.92803 2.87873 -14.2393
ltibia 22.3097
lfoot -8.97586 -4.712
ltoes -18.2986
166
root -22.3397 17.6346 -0.131706 55.6272 -83.5194 -65.2019
lowerback 5.32228 4.25281 6.35614
upperback 5.88574 5.75032 -3.53581
thorax 4.19881 3.17304 -7.32942
lowerneck -5.89951 -8.91899 2.18601
upperneck 13.9353 -14.2305 10.0113
head 5.80098 -6.32772 1.75142
rclavicle 4.37326e-014 -2.38542e-014
rhumerus 55.7754 -5.66003 -35.2462
rradius 34.1994
rwrist -14.1406
rhand -18.639 -8.58442
rfingers 7.12502
rthumb 7.65363 -38.4259
lclavicle 4.37326e-014 -2.38542e-014
lhumerus -21.5759 -11.4488 83.567
lradius 14.5619
lwrist 13.5484
lhand -10.3793 -6.98858
lfingers 7.12502
lthumb 15.6184 22.4009
rfemur 0.794101 2.41578 24.8154
rtibia 27.9715
rfoot -10.1322 -15.7272
rtoes -8.66589
lfemur 2.99415 2.9488 -14.2593
ltibia 22.3226
lfoot -9.01896 -4.62895
ltoes -18.1663
167
root -22.3408 17.6333 -0.119851 56.8841 -83.5848 -66.4684
lowerback 5.17251 4.17366 6.2395
upperback 5.89942 5.63323 -3.44009
thorax 4.25085 3.10857 -7.1503
lowerneck -5.48164 -8.9392 2.11722
upperneck 14.115 -14.2866 10.128
head 5.80204 -6.36229 1.81009
rclavicle -4.45278e-014 3.97569e-014
rhumerus 55.3538 -5.66871 -35.5119
rradius 35.8482
rwrist -14.0959
rhand -18.568 -7.99018
rfingers 7.12502
rthumb 7.72211 -37.8292
lclavicle -4.45278e-014 3.97569e-014
lhumerus -21.6716 -11.1895 83.6351
lradius 14.6068
lwrist 13.4575
lhand -10.3605 -7.06241
lfingers 7.12502
lthumb 15.6365 22.3257
rfemur 0.784901 2.46893 24.7798
rtibia 27.9784
rfoot -10.1124 -15.6267
rtoes -8.69217
lfemur 3.02632 3.02708 -14.2852
ltibia 22.3359
lfoot -9.08051 -4.55796
ltoes -18.2039
168
root -22.3425 17.6319 -0.107405 58.0798 -83.6623 -67.7066
lowerback 5.05819 4.08599 6.09888
upperback 5.91423 5.50545 -3.34144
thorax 4.28031 3.03663 -6.95801
lowerneck -5.07769 -8.95788 2.08515
upperneck 14.3129 -14.3392 10.19
head 5.80451 -6.39566 1.84631
rclavicle 4.81059e-014 1.59028e-015
rhumerus 54.8942 -5.58205 -35.6744
rradius 37.5895
rwrist -14.2046
rhand -18.5327 -7.39885
rfingers 7.12502
rthumb 7.75624 -37.2366
lclavicle 4.81059e-014 1.59028e-015
lhumerus -21.7911 -10.9364 83.7199
lradius 14.6324
lwrist 13.395
lhand -10.3594 -7.14149
lfingers 7.12502
lthumb 15.6375 22.2465
rfemur 0.819751 2.51669 24.7239
rtibia 27.9844
rfoot -10.0779 -15.516
rtoes -8.85749
lfemur 3.09762 3.09039 -14.334
ltibia 22.3508
lfoot -9.1191 -4.47882
ltoes -18.0315
169
root -22.3441 17.6306 -0.0947393 59.4618 -83.7215 -69.0972
lowerback 4.91553 3.99711 5.98104
upperback 5.92036 5.3763 -3.24108
thorax 4.31976 2.96531 -6.77542
lowerneck -4.66665 -8.97403 2.07782
upperneck 14.461 -14.3832 10.2493
head 5.78786 -6.4269 1.88044
rclavicle -1.98785e-014 4.77083e-015
rhumerus 54.3441 -5.43913 -35.6988
rradius 39.457
rwrist -14.3138
rhand -18.4408 -6.88356
rfingers 7.12502
rthumb 7.8449 -36.718
lclavicle -1.98785e-014 4.77083e-015
lhumerus -21.8642 -10.5099 83.7508
lradius 14.5634
lwrist 13.1072
lhand -10.3341 -7.26927
lfingers 7.12502
lthumb 15.6619 22.1168
rfemur 0.807412 2.56168 24.6849
rtibia 27.9937
rfoot -10.042 -15.3793
rtoes -8.95121
lfemur 3.12971 3.1983 -14.3535
ltibia 22.3634
lfoot -9.1626 -4.42674
ltoes -17.9404
170
root -22.346 17.6295 -0.0820353 60.895 -83.7735 -70.5519
lowerback 4.77508 3.90556 5.85162
upperback 5.93444 5.24293 -3.1237
thorax 4.36378 2.89113 -6.56871
lowerneck -4.2398 -8.99385 2.06012
upperneck 14.5706 -14.4249 10.3103
head 5.75706 -6.46019 1.91869
rclavicle 6.99722e-014 -5.56597e-014
rhumerus 53.7812 -5.26208 -35.6545
rradius 41.3747
rwrist -14.382
rhand -18.3312 -6.4099
rfingers 7.12502
rthumb 7.95071 -36.2404
lclavicle 6.99722e-014 -5.56597e-014
lhumerus -21.9446 -10.121 83.8254
lradius 14.4855
lwrist 12.857
lhand -10.3385 -7.3562
lfingers 7.12502
lthumb 15.6576 22.0302
rfemur 0.814236 2.60578 24.6517
rtibia 27.997
rfoot -10.011 -15.2595
rtoes -9.04488
lfemur 3.17789 3.23493 -14.3803
ltibia 22.3825
lfoot -9.20274 -4.32926
ltoes -17.6275
